<?xml version="1.0" encoding="utf-8"?>
<!-- Generator: Adobe Illustrator 16.0.0, SVG Export Plug-In . SVG Version: 6.00 Build 0)  -->
<!DOCTYPE svg PUBLIC "-//W3C//DTD SVG 1.1//EN" "http://www.w3.org/Graphics/SVG/1.1/DTD/svg11.dtd">
<svg version="1.1" id="Layer_1" xmlns="http://www.w3.org/2000/svg" xmlns:xlink="http://www.w3.org/1999/xlink" x="0px" y="0px"
	 width="155px" height="41px" viewBox="0 0 155 41" enable-background="new 0 0 155 41" xml:space="preserve" fill='white'>
<g>
	<path d="M35.705,24.672v-2.857c0-0.25,0.087-0.463,0.263-0.639c0.175-0.176,0.388-0.264,0.639-0.264
		c0.25,0,0.463,0.088,0.639,0.264c0.175,0.176,0.263,0.389,0.263,0.639v2.879c0,0.244,0.089,0.451,0.269,0.623
		c0.179,0.172,0.397,0.258,0.655,0.258h1.826c0.25,0,0.467-0.088,0.65-0.264c0.183-0.175,0.274-0.388,0.274-0.639V14.026
		c0-0.25,0.086-0.463,0.258-0.639c0.172-0.175,0.379-0.263,0.623-0.263c0.243,0,0.458,0.097,0.645,0.29
		c0.186,0.193,0.279,0.412,0.279,0.655v10.603c0,0.76-0.276,1.404-0.827,1.934c-0.552,0.53-1.186,0.795-1.901,0.795h-1.826
		c-0.752,0-1.395-0.269-1.928-0.806C35.971,26.058,35.705,25.417,35.705,24.672z"/>
	<path d="M48.165,26.144l3.634-12.349c0.145-0.447,0.449-0.671,0.913-0.671c0.449,0,0.731,0.19,0.847,0.569l3.598,12.536
		c0.028,0.093,0.043,0.183,0.043,0.269c0,0.251-0.086,0.464-0.258,0.639c-0.172,0.176-0.369,0.264-0.59,0.264
		c-0.473,0-0.773-0.219-0.902-0.655l-0.713-2.449h-4.132l-0.786,2.624c-0.021,0.113-0.112,0.223-0.27,0.326
		C49.39,27.349,49.217,27.4,49.03,27.4c-0.267,0-0.486-0.09-0.659-0.269c-0.173-0.179-0.259-0.397-0.259-0.655
		C48.112,26.369,48.129,26.258,48.165,26.144z M52.699,17.303l-1.548,5.167h3.053L52.699,17.303z"/>
	<path d="M63.433,13.124h4.7c0.574,0,1.117,0.242,1.629,0.725c0.512,0.483,0.77,1.069,0.77,1.756c0,0.258-0.092,0.477-0.275,0.655
		c-0.182,0.179-0.384,0.269-0.606,0.269c-0.308,0-0.52-0.07-0.634-0.209c-0.115-0.14-0.224-0.399-0.328-0.779
		c-0.104-0.379-0.335-0.569-0.694-0.569h-4.467c-0.215,0-0.323,0.069-0.323,0.208c-0.006,0.087,0.038,0.188,0.131,0.303l6.71,8.556
		c0.323,0.414,0.485,0.858,0.485,1.331c0,0.537-0.195,1.01-0.586,1.418S69.12,27.4,68.64,27.4h-4.866
		c-0.645,0-1.205-0.245-1.681-0.736c-0.477-0.49-0.714-1.029-0.714-1.616c0-0.673,0.315-1.01,0.945-1.01
		c0.243,0,0.451,0.088,0.623,0.263c0.172,0.176,0.258,0.382,0.258,0.618c0,0.193,0.066,0.354,0.199,0.483
		c0.132,0.129,0.299,0.193,0.5,0.193h4.49c0.193,0,0.29-0.076,0.29-0.23c0.005-0.072-0.039-0.166-0.132-0.281l-6.699-8.555
		c-0.316-0.408-0.474-0.852-0.474-1.332c0-0.559,0.201-1.043,0.602-1.456C62.382,13.33,62.866,13.124,63.433,13.124z"/>
	<path d="M81.37,14.445l1.987,4.05c0.279,0.552,0.419,1.149,0.419,1.794c0,0.63-0.14,1.225-0.419,1.783l-1.987,4.007
		c-0.423,0.881-1.139,1.321-2.148,1.321c-0.479,0-0.911-0.125-1.294-0.376c-0.384-0.251-0.672-0.565-0.865-0.945l-1.998-4.007
		c-0.265-0.522-0.397-1.117-0.397-1.783s0.133-1.264,0.397-1.794l1.998-4.05c0.451-0.881,1.171-1.321,2.159-1.321
		C80.225,13.124,80.94,13.564,81.37,14.445z M78.62,15.348l-1.869,3.803c-0.172,0.38-0.258,0.752-0.258,1.117
		c0,0.394,0.086,0.77,0.258,1.128l1.923,3.846c0.101,0.236,0.283,0.354,0.548,0.354c0.229,0,0.404-0.118,0.526-0.354l1.934-3.846
		c0.179-0.38,0.269-0.755,0.269-1.128c0-0.394-0.09-0.766-0.269-1.117l-1.891-3.803c-0.122-0.279-0.312-0.419-0.569-0.419
		S78.764,15.068,78.62,15.348z"/>
	<path d="M97.063,14.048V27.4h-2.42L89.78,16.314v10.184c0,0.251-0.088,0.464-0.263,0.639c-0.176,0.176-0.389,0.264-0.64,0.264
		s-0.464-0.088-0.64-0.264c-0.175-0.175-0.263-0.388-0.263-0.639V13.124h2.385l4.877,11.064V14.048c0-0.25,0.091-0.467,0.274-0.65
		c0.182-0.183,0.398-0.274,0.649-0.274s0.464,0.09,0.64,0.269C96.976,13.572,97.063,13.79,97.063,14.048z"/>
	<path d="M114.552,27.4V14.026c0-0.243,0.09-0.455,0.269-0.634c0.179-0.179,0.391-0.269,0.634-0.269s0.455,0.09,0.634,0.269
		c0.179,0.179,0.269,0.391,0.269,0.634v11.569h6.381c0.251,0,0.468,0.088,0.649,0.264c0.184,0.176,0.274,0.389,0.274,0.639
		c0,0.251-0.091,0.464-0.274,0.639c-0.182,0.176-0.398,0.264-0.649,0.264H114.552z"/>
	<path d="M136.026,14.95h-6.381v4.394h2.75c0.243,0,0.455,0.09,0.634,0.269c0.179,0.179,0.269,0.391,0.269,0.634
		c0,0.258-0.088,0.477-0.263,0.655c-0.176,0.179-0.389,0.269-0.64,0.269h-2.75v4.426h6.402c0.243,0,0.455,0.088,0.634,0.264
		s0.269,0.389,0.269,0.639c0,0.251-0.091,0.464-0.274,0.639c-0.182,0.176-0.398,0.264-0.649,0.264h-8.186V13.124h8.186
		c0.251,0,0.468,0.091,0.649,0.274c0.184,0.183,0.274,0.399,0.274,0.65c0,0.244-0.091,0.455-0.274,0.634
		C136.494,14.861,136.277,14.95,136.026,14.95z"/>
	<path d="M149.313,14.95h-6.381v4.394h2.75c0.243,0,0.455,0.09,0.634,0.269c0.179,0.179,0.269,0.391,0.269,0.634
		c0,0.258-0.088,0.477-0.263,0.655c-0.176,0.179-0.389,0.269-0.64,0.269h-2.75v4.426h6.402c0.243,0,0.455,0.088,0.634,0.264
		s0.269,0.389,0.269,0.639c0,0.251-0.091,0.464-0.274,0.639c-0.182,0.176-0.398,0.264-0.649,0.264h-8.186V13.124h8.186
		c0.251,0,0.468,0.091,0.649,0.274c0.184,0.183,0.274,0.399,0.274,0.65c0,0.244-0.091,0.455-0.274,0.634
		C149.781,14.861,149.564,14.95,149.313,14.95z"/>
</g>
<g>
	<g>
		<g>
			<path fill="#68e790" d="M31.002,6.732H4.08c-1.37,0-2.48,1.11-2.48,2.479v2.819c0,0.196,0.159,0.354,0.354,0.354h31.175
				c0.195,0,0.354-0.158,0.354-0.354V9.211C33.482,7.842,32.372,6.732,31.002,6.732z M6.071,10.357
				c-0.441,0-0.799-0.358-0.799-0.799c0-0.441,0.358-0.799,0.799-0.799S6.87,9.117,6.87,9.558C6.87,10,6.512,10.357,6.071,10.357z
				 M8.634,10.357c-0.441,0-0.8-0.358-0.8-0.799c0-0.441,0.358-0.799,0.8-0.799s0.799,0.358,0.799,0.799
				C9.433,10,9.075,10.357,8.634,10.357z M11.196,10.357c-0.442,0-0.799-0.358-0.799-0.799c0-0.441,0.357-0.799,0.799-0.799
				c0.441,0,0.799,0.358,0.799,0.799C11.996,10,11.637,10.357,11.196,10.357z"/>
			<path fill="#68e790" d="M33.128,13.801H1.954c-0.195,0-0.354,0.159-0.354,0.355v17.667c0,1.369,1.11,2.479,2.48,2.479h26.922
				c1.37,0,2.48-1.11,2.48-2.479V14.156C33.482,13.959,33.323,13.801,33.128,13.801z M11.688,27.587
				c0.276,0.276,0.276,0.725,0,1.002c-0.138,0.139-0.32,0.207-0.501,0.207s-0.362-0.068-0.501-0.207L6.61,24.513
				c-0.276-0.276-0.276-0.724,0-1.003l4.075-4.074c0.277-0.277,0.726-0.277,1.002,0c0.276,0.276,0.276,0.726,0,1.001l-3.575,3.574
				L11.688,27.587z M21.437,19.138l-6.084,10.537c-0.131,0.227-0.369,0.354-0.614,0.354c-0.12,0-0.242-0.031-0.354-0.097
				c-0.339-0.195-0.455-0.628-0.259-0.967l6.084-10.537c0.195-0.339,0.629-0.455,0.967-0.259
				C21.516,18.366,21.632,18.799,21.437,19.138z M28.472,24.513l-4.075,4.076c-0.139,0.139-0.321,0.207-0.501,0.207
				c-0.181,0-0.363-0.068-0.501-0.207c-0.276-0.277-0.276-0.726,0-1.002l3.575-3.575l-3.575-3.574c-0.276-0.275-0.276-0.725,0-1.001
				c0.277-0.277,0.726-0.277,1.003,0l4.075,4.074c0.133,0.135,0.208,0.315,0.208,0.502C28.679,24.2,28.604,24.381,28.472,24.513z"/>
		</g>
	</g>
</g>
</svg>
